<svg xmlns="http://www.w3.org/2000/svg"><symbol id="chevon-icon" viewBox="0 0 256 256"><path d="M37.6 143.7h178.1v56.49H37.6z" transform="rotate(135 126.62 171.89)"/><path d="M37.6 57.7h178.1v56.49H37.6z" transform="rotate(-135 126.619 85.916)"/></symbol><symbol id="error" viewBox="0 0 256 256"><path d="M192 128L133.9 14.8a6.6 6.6 0 0 0-11.7 0L64 128 4.9 243.1a6.6 6.6 0 0 0 5.9 9.6h234.4a6.6 6.6 0 0 0 5.9-9.6zm-46.1-42.1l-4.4 91a6.6 6.6 0 0 1-6.6 6.3h-13.6a6.6 6.6 0 0 1-6.6-6.3l-4.6-91a6.6 6.6 0 0 1 6.6-6.9h22.7a6.6 6.6 0 0 1 6.5 6.9zm-17.8 150.6c-12.4 0-20.7-9-20.7-20.9s8.5-20.9 20.7-20.9 20.2 8.7 20.5 20.9-8.1 20.9-20.5 20.9z"/></symbol><symbol id="exit-icon" viewBox="0 0 256 256"><path d="M-16.8 96h290.4v64.87H-16.8z" transform="rotate(135 128.407 128.403)"/><path d="M-17.6 95.2h290.4v64.87H-17.6z" transform="rotate(45 127.535 127.627)"/></symbol><symbol id="facebook-icon" viewBox="0 0 256 256"><path d="M128 3.3A124.7 124.7 0 1 0 252.7 128 124.7 124.7 0 0 0 128 3.3zm37.3 71.9h-17.7s-6.2.6-6.2 10.3V99h23.9v30h-24v78.7H107v-79.6l-16.2-.9V99h17.5V70.6s3.8-21.5 24.7-22 32.4 0 32.4 0z"/></symbol><symbol id="hamburger-icon" viewBox="0 0 256 256"><path d="M3.6 3h248.8v50.17H3.6zm0 99.9h248.8v50.17H3.6zm0 99.9h248.8v50.17H3.6z"/></symbol><symbol id="instagram-icon" viewBox="0 0 256 256"><path d="M157 129.3a28.4 28.4 0 1 1-28.4-28.4 28.5 28.5 0 0 1 28.4 28.4z"/><path d="M128 3.3A124.7 124.7 0 1 0 252.7 128 124.7 124.7 0 0 0 128 3.3zm85.6 164.1a46.2 46.2 0 0 1-46.2 46.2H88.5a46.2 46.2 0 0 1-46.2-46.2V88.5a46.2 46.2 0 0 1 46.2-46.1h78.9a46.2 46.2 0 0 1 46.2 46.2zM167.5 59.9h-79a28.7 28.7 0 0 0-28.6 28.6v78.9A28.7 28.7 0 0 0 88.5 196h78.9a28.7 28.7 0 0 0 28.6-28.6V88.5a28.7 28.7 0 0 0-28.5-28.6zm-38.9 115.4a46 46 0 1 1 46-46 46 46 0 0 1-46 46zm47.2-84a10.1 10.1 0 1 1 10.1-10 10.1 10.1 0 0 1-10.1 10z"/></symbol><symbol id="twitter-icon" viewBox="0 0 256 256"><path d="M128 3.3A124.7 124.7 0 1 0 252.7 128 124.7 124.7 0 0 0 128 3.3zM201.1 95s2.9 42.1-25.2 70.3-87.5 39.2-120.3 15.6c0 0 34.1 2.1 46.3-14.3a36.9 36.9 0 0 1-29-22.7l13.5-.8s-28.3-6.4-26.2-34.1c0 0 10.5 5.1 16.8 5.1 0 0-24-10.1-11.4-44.6 0 0 20.6 29 68.2 33.7 0 0-2.9-29.5 20.6-37.9s37 7.6 37 7.6 18.5-5 21-7.6c0 0-3.4 13.5-11.8 16 0 0 4.6 2.5 16-3.4a34.5 34.5 0 0 1-15.5 17.2z"/></symbol></svg>