<svg xmlns="http://www.w3.org/2000/svg" width="64" height="64" viewBox="0 0 64 64"><path fill="#34b28a" d="M0 4.5h64v53.18H0z"/><path fill="#fdfefe" d="M27.3 33.7c-2.3 4.4-4.6 11.2-7.5 14.7a17.8 17.8 0 0 1-5.6 4.2c-.1 0-.1.2 0 .1 2.1-.6 4-.3 6.3.3a78.7 78.7 0 0 0 10.4 2.3 5.4 5.4 0 0 0 5.1-1.8c.1-.2.4-.1.3.2s-1.7 3.2-5 3.2-7-1.1-12-2.5a13.1 13.1 0 0 0-7.5-.2l-1.7.4c-.4.1-.9-.7-1.1-1s-.1-.1 0-.1c3.1-.3 5.4-.9 8.8-5.4 2.3-2.9 5-9.9 7.9-15.5 1.9-3.6 5.1-6.3 8.6-6.8s6.5.4 7.8 2.7c.1.2-.1.4-.3.3-2.2-2.2-4.1-2.5-7.4-1.8s-5.2 3-7.1 6.7z"/><path fill="#fdfefe" d="M42.8 48.2c-1.9-3.3-3-4.4-3.5-4.7l-.7-.3c-.1 0-.1-.3.1-.2a12.4 12.4 0 0 0 6.8-1.1c2.9-1.5 5.4-5.1 3.6-7.9a3.8 3.8 0 0 0-2-1.5l-.7.3c-2.2 1.3-5.8 5.6-9.1 10.4s-5.1 9-5.1 10.6-.1.2-.3.1a3.4 3.4 0 0 1-.9-.9 1.5 1.5 0 0 1 0-.5 47.8 47.8 0 0 1 5.1-10.1c3.2-4.8 5.1-6.9 7.5-9.1a6 6 0 0 1 2.9-1c-2.3-.6-5.6-.1-8 .7-5.1 1.7-8.5 5.1-8.7 8.8-.1 1.5.3 3.4 1.5 4.4s0 .3-.2.2-2.4-3-2.4-4.8c0-4.8 3.7-8.3 8.9-9.8 3.3-.9 10.8-1.2 12.8 2.1s-.4 6.9-3.8 8.5a14.5 14.5 0 0 1-5.5 1.2 19 19 0 0 1 2.9 3.8c2.1 3.4 3.2 7.1 6.1 8.5a4.7 4.7 0 0 0 5.3-.3c.2-.1.4 0 .2.2s-2.9 2-5.8 1.2-4.5-4.4-7-8.8zM9.3 53.5c-2.4-.2-8-2.4-7.6-7.1a7.6 7.6 0 0 1 .6-2.3c.5-1.4 2.4-3.6 1-6.3a8.4 8.4 0 0 1-1.5 3.8c-1 1.7-4.1 13.7 8 12.9.9-.1-1.2-1.2-.5-1zm30.6-40.3s0 8.1-4.7 7.6-2.8-7.4-2.8-7.4S38.2-.4 53.3 9.3c0 0-13.5-11.8-22.6 3-4.4 8.7 1.2 10.8 4 10.7s6.8-4.5 5.2-9.8zm5.4 5.1s16.2 6 16.2-4.5a2.1 2.1 0 0 0-1.2-1.9 13.4 13.4 0 0 0-5.7-.8 18.7 18.7 0 0 1 7.7-.6 1.5 1.5 0 0 1 1.2 1.4c.1 3.6-1.1 14.5-18.2 6.4z"/></svg>