<svg id="Logo" xmlns="http://www.w3.org/2000/svg" width="252.6" height="210.7" viewBox="0 0 252.6 210.7"><title>Loyal Rescue Logo</title><rect x="0.9" y="1.5" width="250.3" height="207.96" fill="#34b28a"/><g id="L"><path d="M107.8,115.8C99,133,90,159.7,78.5,173.3c-7.1,8.4-15.4,12.8-22,16.3-.3.2-.3.6.2.4,8.3-2.5,15.6-1.2,24.7,1.2,20.3,5.5,31.9,8,40.5,9.1,13.3,1.7,19.3-6.3,19.9-7s1.5-.3,1,.7-6.8,12.4-19.6,12.5c-10.3.1-27.3-4.2-46.9-9.8-8.3-2.4-14.7-3.8-29.4-.9l-6.5,1.4c-1.5.3-3.7-2.9-4.2-3.8s-.2-.4.1-.5c12.1-1,21-3.6,34.6-21.1,8.9-11.5,19.4-38.9,30.9-60.7,7.3-14,20-24.5,33.6-26.5,16.1-2.5,25.4,1.4,30.5,10.7.4.7-.5,1.7-1.1,1-8.5-8.4-15.9-9.6-29.1-7.1C125.5,91.1,115.1,101.6,107.8,115.8Z" fill="#fdfefe"/></g><g id="R"><path d="M168.4,172.7c-7.6-13-11.6-17.1-13.7-18.5a13.3,13.3,0,0,0-2.9-1.2c-.4-.1-.3-1.1.3-.9,6.1,1.1,17.9,0,26.4-4.4,11.4-5.8,21.1-19.9,14.2-30.9A15,15,0,0,0,185,111a9.1,9.1,0,0,0-2.7,1.2c-8.5,5.2-22.8,22-35.6,40.5-9.6,13.9-19.8,35.2-19.8,41.4,0,.8-.5.9-1.1.5s-3.1-2.3-3.7-3.6a6,6,0,0,1-.1-2.1c.8-3.9,9.7-23.9,20-39.3,12.6-18.7,19.9-27.1,29.5-35.6,2.8-2.5,8.9-3.5,11.3-3.7-9.2-2.5-21.9-.5-31.3,2.7-19.8,6.6-33.2,20-33.9,34.3-.3,5.7,1.1,13.4,6,17.1.7.7.1,1.2-.7.8-6.2-3.2-9.4-11.7-9.4-18.6.1-18.9,14.3-32.4,34.8-38.2,12.7-3.6,42.1-4.8,50.1,8.4s-1.6,27.1-14.7,33.2a56.8,56.8,0,0,1-21.4,4.8c2.1,2,5.2,5.8,10.6,14.7,8.1,13.3,12.6,27.9,23.8,33.2,9.3,4.4,15.1,2.4,20.6-1.3.7-.4,1.5.1.8.8-3.1,3.6-11.4,7.8-22.7,4.6S178.2,189.7,168.4,172.7Z" fill="#fdfefe"/></g><path id="Tail" d="M37.4,193.1c-9.3-.6-31.1-9.4-29.6-27.6a29.7,29.7,0,0,1,2.4-9.2c2.1-5.3,9.4-14,3.8-24.8,0,0-.1,5.9-5.7,15-4,6.6-15.9,53.5,31.3,50.6C42.7,197,34.6,192.6,37.4,193.1Z" fill="#fdfefe"/><path id="Head" d="M157,35.6s0,31.5-18.3,29.9c-23-2-11-28.9-11-28.9s22.8-54,81.5-16.3c0,0-52.8-46.1-88.4,11.8-17.1,33.9,5.1,42.1,15.8,41.9S163.2,56.4,157,35.6Z" fill="#fdfefe"/><path id="Face" d="M178.1,55.5S241.5,79,241.5,38a8.3,8.3,0,0,0-4.7-7.6c-3.7-1.7-10.4-3.4-22.2-3.2,0,0,15.6-4.9,30.1-2.4a5.7,5.7,0,0,1,4.8,5.6C249.8,44.9,245.1,87.4,178.1,55.5Z" fill="#fdfefe"/></svg>