<svg xmlns="http://www.w3.org/2000/svg" width="16" height="16" viewBox="0 0 16 16"><path fill="#34b28a" d="M0 1.1h16v13.3H0z"/><path fill="#fdfefe" d="M6.8 8.5A22.2 22.2 0 0 1 5 12.1a4.5 4.5 0 0 1-1.4 1 2.7 2.7 0 0 1 1.6.1l2.6.6a1.3 1.3 0 0 0 1.2-.4h.1a1.6 1.6 0 0 1-1.3.8 12.9 12.9 0 0 1-3-.6 3.3 3.3 0 0 0-1.9-.1h-.4c-.1 0-.2-.2-.3-.2A2.7 2.7 0 0 0 4.5 12a41 41 0 0 0 2-3.9 3.1 3.1 0 0 1 2.1-1.6c1-.2 1.6.1 1.9.7h-.1a1.8 1.8 0 0 0-1.9-.5 3 3 0 0 0-1.7 1.8z"/><path fill="#fdfefe" d="M10.7 12.1a3.7 3.7 0 0 0-.9-1.2h-.2v-.1a3.1 3.1 0 0 0 1.7-.3c.7-.4 1.3-1.3.9-2l-.5-.4h-.2a10.8 10.8 0 0 0-2.3 2.6 8.3 8.3 0 0 0-1.3 2.6H8l-.2-.2a.4.4 0 0 1 0-.1A12 12 0 0 1 9 10.6a10.7 10.7 0 0 1 1.9-2.3 1.5 1.5 0 0 1 .7-.2 3.8 3.8 0 0 0-2 .2c-1.3.4-2.1 1.3-2.2 2.2a1.3 1.3 0 0 0 .4 1.1 1.4 1.4 0 0 1-.6-1.2A2.7 2.7 0 0 1 9.4 8c.8-.2 2.7-.3 3.2.5a1.6 1.6 0 0 1-.9 2.1l-1.4.3.7.9c.5.8.8 1.8 1.5 2.1a1.2 1.2 0 0 0 1.3-.1h.1a1.4 1.4 0 0 1-1.5.3c-.8-.1-1.1-.9-1.7-2zm-8.4 1.3c-.6 0-2-.6-1.9-1.8a1.9 1.9 0 0 1 .2-.6c.1-.3.6-.9.2-1.6a2.1 2.1 0 0 1-.4 1c-.3.4-1 3.4 2 3.2.3 0-.2-.2-.1-.2zM10 3.3s0 2-1.2 1.9-.7-1.8-.7-1.8 1.5-3.5 5.2-1c0 0-3.4-2.9-5.7.8-1.1 2.2.3 2.7 1 2.7A1.9 1.9 0 0 0 10 3.3zm1.3 1.3s4.1 1.5 4.1-1.1a.5.5 0 0 0-.3-.5 3.4 3.4 0 0 0-1.4-.2 4.7 4.7 0 0 1 1.9-.2.4.4 0 0 1 .3.4c0 .9-.3 3.6-4.6 1.6z"/></svg>