<svg xmlns="http://www.w3.org/2000/svg" width="32" height="32" viewBox="0 0 32 32"><path fill="#34b28a" d="M0 0h32v26.59H0z"/><path fill="#fdfefe" d="M13.7 14.6c-1.1 2.2-2.3 5.6-3.8 7.3A8.9 8.9 0 0 1 7.1 24v.1a5.5 5.5 0 0 1 3.2.2 39.4 39.4 0 0 0 5.2 1.2 2.7 2.7 0 0 0 2.5-.9c.1-.1.2 0 .1.1a3.1 3.1 0 0 1-2.5 1.6 25.9 25.9 0 0 1-6-1.3 6.6 6.6 0 0 0-3.8-.1L5 25c-.2 0-.5-.4-.5-.5v-.1c1.5-.1 2.7-.5 4.4-2.7s2.5-5 4-7.8a6.2 6.2 0 0 1 4.3-3.4c2.1-.3 3.3.2 3.9 1.4s-.1.2-.1.1-2-1.2-3.7-.9-2.7 1.7-3.6 3.5z"/><path fill="#fdfefe" d="M21.4 21.9a7.3 7.3 0 0 0-1.7-2.4l-.4-.2c-.1 0 0-.1 0-.1a6.2 6.2 0 0 0 3.4-.6c1.5-.7 2.7-2.5 1.8-4a1.9 1.9 0 0 0-1-.7l-.3.2c-1.1.7-2.9 2.8-4.5 5.2s-2.5 4.5-2.5 5.3-.1.1-.1.1l-.5-.5a.8.8 0 0 1 0-.3 23.9 23.9 0 0 1 2.6-5 21.4 21.4 0 0 1 3.8-4.6 3 3 0 0 1 1.4-.5 7.6 7.6 0 0 0-4 .3c-2.5.8-4.2 2.6-4.3 4.4a2.7 2.7 0 0 0 .8 2.2c.1.1 0 .2-.1.1a2.7 2.7 0 0 1-1.2-2.4c0-2.4 1.8-4.1 4.4-4.9s5.4-.6 6.4 1.1-.4 3.6-2 4.4a7.3 7.3 0 0 1-2.7.6 9.5 9.5 0 0 1 1.3 1.9c1 1.7 1.6 3.6 3 4.2a2.3 2.3 0 0 0 2.6-.2c.1-.1.2 0 .1.1a2.8 2.8 0 0 1-2.9.6c-1.5-.4-2.1-2.1-3.4-4.3zM4.7 24.5C3.5 24.4.7 23.3.9 21a3.8 3.8 0 0 1 .3-1.2c.3-.7 1.2-1.8.5-3.2a4.2 4.2 0 0 1-.7 1.9c-.5.8-2 6.8 4 6.5.3 0-.7-.6-.3-.5zM19.9 4.4s0 4-2.3 3.8-1.4-3.7-1.4-3.7 2.9-6.9 10.4-2.1c0 0-6.8-5.9-11.3 1.5-2.2 4.3.6 5.4 2 5.4s3.5-2.3 2.6-4.9zm2.8 2.5s8.1 3 8.1-2.2a1.1 1.1 0 0 0-.6-1 6.7 6.7 0 0 0-2.8-.4 9.4 9.4 0 0 1 3.8-.3.7.7 0 0 1 .6.7c0 1.8-.6 7.3-9.1 3.2z"/></svg>